<?xml version="1.0" encoding="UTF-8" standalone="no"?>
<!DOCTYPE svg PUBLIC "-//W3C//DTD SVG 1.1//EN"
 "http://www.w3.org/Graphics/SVG/1.1/DTD/svg11.dtd">
<!-- Generated by graphviz version 2.47.0 (20210316.0004)
 -->
<!-- Title: dependencies Pages: 1 -->
<svg width="668pt" height="211pt"
 viewBox="0.00 0.00 668.00 211.00" xmlns="http://www.w3.org/2000/svg" xmlns:xlink="http://www.w3.org/1999/xlink">
<g id="graph0" class="graph" transform="scale(1 1) rotate(0) translate(4 207)">
<title>dependencies</title>
<polygon fill="white" stroke="transparent" points="-4,4 -4,-207 664,-207 664,4 -4,4"/>
<text text-anchor="start" x="309.01" y="-42.4" font-family="Times-12" font-weight="bold" font-size="14.00">Legend</text>
<polygon fill="#ffffb3" stroke="transparent" points="96,-10 96,-30 116,-30 116,-10 96,-10"/>
<text text-anchor="start" x="119.63" y="-15.4" font-family="Times-12" font-size="14.00"> &#160;Declarations</text>
<polygon fill="#8dd3c7" stroke="transparent" points="209,-10 209,-30 229,-30 229,-10 209,-10"/>
<text text-anchor="start" x="232.73" y="-15.4" font-family="Times-12" font-size="14.00"> &#160;Module</text>
<polygon fill="#80b1d3" stroke="transparent" points="295,-10 295,-30 315,-30 315,-10 295,-10"/>
<text text-anchor="start" x="318.78" y="-15.4" font-family="Times-12" font-size="14.00"> &#160;Bootstrap</text>
<polygon fill="#fdb462" stroke="transparent" points="392,-10 392,-30 412,-30 412,-10 392,-10"/>
<text text-anchor="start" x="415.67" y="-15.4" font-family="Times-12" font-size="14.00"> &#160;Providers</text>
<polygon fill="#fb8072" stroke="transparent" points="488,-10 488,-30 508,-30 508,-10 488,-10"/>
<text text-anchor="start" x="511.73" y="-15.4" font-family="Times-12" font-size="14.00"> &#160;Exports</text>
<g id="clust1" class="cluster">
<title>cluster_AuthAdminModule</title>
<polygon fill="none" stroke="black" stroke-dasharray="1,5" points="8,-70 8,-195 652,-195 652,-70 8,-70"/>
</g>
<g id="clust6" class="cluster">
<title>cluster_AuthAdminModule_providers</title>
<polygon fill="none" stroke="black" points="16,-78 16,-130 644,-130 644,-78 16,-78"/>
</g>
<!-- AdminService -->
<g id="node1" class="node">
<title>AdminService</title>
<ellipse fill="#fdb462" stroke="black" cx="569" cy="-104" rx="66.63" ry="18"/>
<text text-anchor="middle" x="569" y="-99.8" font-family="Times,serif" font-size="14.00">AdminService</text>
</g>
<!-- AuthAdminModule -->
<g id="node5" class="node">
<title>AuthAdminModule</title>
<polygon fill="#8dd3c7" stroke="black" points="407.44,-187 404.44,-191 383.44,-191 380.44,-187 280.56,-187 280.56,-151 407.44,-151 407.44,-187"/>
<text text-anchor="middle" x="344" y="-164.8" font-family="Times,serif" font-size="14.00">AuthAdminModule</text>
</g>
<!-- AdminService&#45;&gt;AuthAdminModule -->
<g id="edge1" class="edge">
<title>AdminService&#45;&gt;AuthAdminModule</title>
<path fill="none" stroke="black" d="M569,-122.11C569,-141.34 569,-169 569,-169 569,-169 417.27,-169 417.27,-169"/>
<polygon fill="black" stroke="black" points="417.27,-165.5 407.27,-169 417.27,-172.5 417.27,-165.5"/>
</g>
<!-- AuthService -->
<g id="node2" class="node">
<title>AuthService</title>
<ellipse fill="#fdb462" stroke="black" cx="425" cy="-104" rx="59.11" ry="18"/>
<text text-anchor="middle" x="425" y="-99.8" font-family="Times,serif" font-size="14.00">AuthService</text>
</g>
<!-- AuthService&#45;&gt;AuthAdminModule -->
<g id="edge2" class="edge">
<title>AuthService&#45;&gt;AuthAdminModule</title>
<path fill="none" stroke="black" d="M386.46,-117.78C386.46,-117.78 386.46,-140.55 386.46,-140.55"/>
<polygon fill="black" stroke="black" points="382.96,-140.55 386.46,-150.55 389.96,-140.55 382.96,-140.55"/>
</g>
<!-- JwtAdminStrategy -->
<g id="node3" class="node">
<title>JwtAdminStrategy</title>
<ellipse fill="#fdb462" stroke="black" cx="264" cy="-104" rx="83.4" ry="18"/>
<text text-anchor="middle" x="264" y="-99.8" font-family="Times,serif" font-size="14.00">JwtAdminStrategy</text>
</g>
<!-- JwtAdminStrategy&#45;&gt;AuthAdminModule -->
<g id="edge3" class="edge">
<title>JwtAdminStrategy&#45;&gt;AuthAdminModule</title>
<path fill="none" stroke="black" d="M314.12,-118.43C314.12,-118.43 314.12,-140.89 314.12,-140.89"/>
<polygon fill="black" stroke="black" points="310.62,-140.89 314.12,-150.89 317.62,-140.89 310.62,-140.89"/>
</g>
<!-- StudentService -->
<g id="node4" class="node">
<title>StudentService</title>
<ellipse fill="#fdb462" stroke="black" cx="93" cy="-104" rx="69.5" ry="18"/>
<text text-anchor="middle" x="93" y="-99.8" font-family="Times,serif" font-size="14.00">StudentService</text>
</g>
<!-- StudentService&#45;&gt;AuthAdminModule -->
<g id="edge4" class="edge">
<title>StudentService&#45;&gt;AuthAdminModule</title>
<path fill="none" stroke="black" d="M93,-122.11C93,-141.34 93,-169 93,-169 93,-169 270.66,-169 270.66,-169"/>
<polygon fill="black" stroke="black" points="270.66,-172.5 280.66,-169 270.66,-165.5 270.66,-172.5"/>
</g>
</g>
</svg>
