<?xml version="1.0" encoding="UTF-8" standalone="no"?>
<!DOCTYPE svg PUBLIC "-//W3C//DTD SVG 1.1//EN"
 "http://www.w3.org/Graphics/SVG/1.1/DTD/svg11.dtd">
<!-- Generated by graphviz version 2.47.0 (20210316.0004)
 -->
<!-- Title: dependencies Pages: 1 -->
<svg width="1630pt" height="211pt"
 viewBox="0.00 0.00 1630.00 211.00" xmlns="http://www.w3.org/2000/svg" xmlns:xlink="http://www.w3.org/1999/xlink">
<g id="graph0" class="graph" transform="scale(1 1) rotate(0) translate(4 207)">
<title>dependencies</title>
<polygon fill="white" stroke="transparent" points="-4,4 -4,-207 1626,-207 1626,4 -4,4"/>
<text text-anchor="start" x="790.01" y="-42.4" font-family="Times-12" font-weight="bold" font-size="14.00">Legend</text>
<polygon fill="#ffffb3" stroke="transparent" points="577,-10 577,-30 597,-30 597,-10 577,-10"/>
<text text-anchor="start" x="600.63" y="-15.4" font-family="Times-12" font-size="14.00"> &#160;Declarations</text>
<polygon fill="#8dd3c7" stroke="transparent" points="690,-10 690,-30 710,-30 710,-10 690,-10"/>
<text text-anchor="start" x="713.73" y="-15.4" font-family="Times-12" font-size="14.00"> &#160;Module</text>
<polygon fill="#80b1d3" stroke="transparent" points="776,-10 776,-30 796,-30 796,-10 776,-10"/>
<text text-anchor="start" x="799.78" y="-15.4" font-family="Times-12" font-size="14.00"> &#160;Bootstrap</text>
<polygon fill="#fdb462" stroke="transparent" points="873,-10 873,-30 893,-30 893,-10 873,-10"/>
<text text-anchor="start" x="896.67" y="-15.4" font-family="Times-12" font-size="14.00"> &#160;Providers</text>
<polygon fill="#fb8072" stroke="transparent" points="969,-10 969,-30 989,-30 989,-10 969,-10"/>
<text text-anchor="start" x="992.73" y="-15.4" font-family="Times-12" font-size="14.00"> &#160;Exports</text>
<g id="clust1" class="cluster">
<title>cluster_AppModule</title>
<polygon fill="none" stroke="black" stroke-dasharray="1,5" points="8,-70 8,-195 1614,-195 1614,-70 8,-70"/>
</g>
<g id="clust3" class="cluster">
<title>cluster_AppModule_imports</title>
<polygon fill="none" stroke="black" points="154,-78 154,-130 1606,-130 1606,-78 154,-78"/>
</g>
<g id="clust6" class="cluster">
<title>cluster_AppModule_providers</title>
<polygon fill="none" stroke="black" points="16,-78 16,-130 146,-130 146,-78 16,-78"/>
</g>
<!-- AdminModule -->
<g id="node1" class="node">
<title>AdminModule</title>
<polygon fill="#8dd3c7" stroke="black" points="1598.44,-122 1595.44,-126 1574.44,-126 1571.44,-122 1499.56,-122 1499.56,-86 1598.44,-86 1598.44,-122"/>
<text text-anchor="middle" x="1549" y="-99.8" font-family="Times,serif" font-size="14.00">AdminModule</text>
</g>
<!-- AppModule -->
<g id="node12" class="node">
<title>AppModule</title>
<polygon fill="#8dd3c7" stroke="black" points="865.66,-187 862.66,-191 841.66,-191 838.66,-187 782.34,-187 782.34,-151 865.66,-151 865.66,-187"/>
<text text-anchor="middle" x="824" y="-164.8" font-family="Times,serif" font-size="14.00">AppModule</text>
</g>
<!-- AdminModule&#45;&gt;AppModule -->
<g id="edge1" class="edge">
<title>AdminModule&#45;&gt;AppModule</title>
<path fill="none" stroke="black" d="M1549,-122.09C1549,-145.13 1549,-182 1549,-182 1549,-182 875.85,-182 875.85,-182"/>
<polygon fill="black" stroke="black" points="875.85,-178.5 865.85,-182 875.85,-185.5 875.85,-178.5"/>
</g>
<!-- AuthAdminModule -->
<g id="node2" class="node">
<title>AuthAdminModule</title>
<polygon fill="#8dd3c7" stroke="black" points="1482.44,-122 1479.44,-126 1458.44,-126 1455.44,-122 1355.56,-122 1355.56,-86 1482.44,-86 1482.44,-122"/>
<text text-anchor="middle" x="1419" y="-99.8" font-family="Times,serif" font-size="14.00">AuthAdminModule</text>
</g>
<!-- AuthAdminModule&#45;&gt;AppModule -->
<g id="edge2" class="edge">
<title>AuthAdminModule&#45;&gt;AppModule</title>
<path fill="none" stroke="black" d="M1419,-122.28C1419,-143.32 1419,-175 1419,-175 1419,-175 875.84,-175 875.84,-175"/>
<polygon fill="black" stroke="black" points="875.84,-171.5 865.84,-175 875.84,-178.5 875.84,-171.5"/>
</g>
<!-- AuthModule -->
<g id="node3" class="node">
<title>AuthModule</title>
<polygon fill="#8dd3c7" stroke="black" points="1337.55,-122 1334.55,-126 1313.55,-126 1310.55,-122 1250.45,-122 1250.45,-86 1337.55,-86 1337.55,-122"/>
<text text-anchor="middle" x="1294" y="-99.8" font-family="Times,serif" font-size="14.00">AuthModule</text>
</g>
<!-- AuthModule&#45;&gt;AppModule -->
<g id="edge3" class="edge">
<title>AuthModule&#45;&gt;AppModule</title>
<path fill="none" stroke="black" d="M1294,-122.11C1294,-141.34 1294,-169 1294,-169 1294,-169 875.71,-169 875.71,-169"/>
<polygon fill="black" stroke="black" points="875.71,-165.5 865.71,-169 875.71,-172.5 875.71,-165.5"/>
</g>
<!-- AuthStudentModule -->
<g id="node4" class="node">
<title>AuthStudentModule</title>
<polygon fill="#8dd3c7" stroke="black" points="1232.33,-122 1229.33,-126 1208.33,-126 1205.33,-122 1101.67,-122 1101.67,-86 1232.33,-86 1232.33,-122"/>
<text text-anchor="middle" x="1167" y="-99.8" font-family="Times,serif" font-size="14.00">AuthStudentModule</text>
</g>
<!-- AuthStudentModule&#45;&gt;AppModule -->
<g id="edge4" class="edge">
<title>AuthStudentModule&#45;&gt;AppModule</title>
<path fill="none" stroke="black" d="M1167,-122.02C1167,-139.37 1167,-163 1167,-163 1167,-163 875.72,-163 875.72,-163"/>
<polygon fill="black" stroke="black" points="875.72,-159.5 865.72,-163 875.72,-166.5 875.72,-159.5"/>
</g>
<!-- GradeModule -->
<g id="node5" class="node">
<title>GradeModule</title>
<polygon fill="#8dd3c7" stroke="black" points="1083.75,-122 1080.75,-126 1059.75,-126 1056.75,-122 990.25,-122 990.25,-86 1083.75,-86 1083.75,-122"/>
<text text-anchor="middle" x="1037" y="-99.8" font-family="Times,serif" font-size="14.00">GradeModule</text>
</g>
<!-- GradeModule&#45;&gt;AppModule -->
<g id="edge5" class="edge">
<title>GradeModule&#45;&gt;AppModule</title>
<path fill="none" stroke="black" d="M1037,-122.24C1037,-137.57 1037,-157 1037,-157 1037,-157 875.83,-157 875.83,-157"/>
<polygon fill="black" stroke="black" points="875.83,-153.5 865.83,-157 875.83,-160.5 875.83,-153.5"/>
</g>
<!-- LessonAdminModule -->
<g id="node6" class="node">
<title>LessonAdminModule</title>
<polygon fill="#8dd3c7" stroke="black" points="972.09,-122 969.09,-126 948.09,-126 945.09,-122 833.91,-122 833.91,-86 972.09,-86 972.09,-122"/>
<text text-anchor="middle" x="903" y="-99.8" font-family="Times,serif" font-size="14.00">LessonAdminModule</text>
</g>
<!-- LessonAdminModule&#45;&gt;AppModule -->
<g id="edge6" class="edge">
<title>LessonAdminModule&#45;&gt;AppModule</title>
<path fill="none" stroke="black" d="M849.89,-122.11C849.89,-122.11 849.89,-140.99 849.89,-140.99"/>
<polygon fill="black" stroke="black" points="846.39,-140.99 849.89,-150.99 853.39,-140.99 846.39,-140.99"/>
</g>
<!-- LessonStudentModule -->
<g id="node7" class="node">
<title>LessonStudentModule</title>
<polygon fill="#8dd3c7" stroke="black" points="815.98,-122 812.98,-126 791.98,-126 788.98,-122 674.02,-122 674.02,-86 815.98,-86 815.98,-122"/>
<text text-anchor="middle" x="745" y="-99.8" font-family="Times,serif" font-size="14.00">LessonStudentModule</text>
</g>
<!-- LessonStudentModule&#45;&gt;AppModule -->
<g id="edge7" class="edge">
<title>LessonStudentModule&#45;&gt;AppModule</title>
<path fill="none" stroke="black" d="M799.08,-122.11C799.08,-122.11 799.08,-140.99 799.08,-140.99"/>
<polygon fill="black" stroke="black" points="795.58,-140.99 799.08,-150.99 802.58,-140.99 795.58,-140.99"/>
</g>
<!-- PrismaModule -->
<g id="node8" class="node">
<title>PrismaModule</title>
<polygon fill="#8dd3c7" stroke="black" points="656.43,-122 653.43,-126 632.43,-126 629.43,-122 557.57,-122 557.57,-86 656.43,-86 656.43,-122"/>
<text text-anchor="middle" x="607" y="-99.8" font-family="Times,serif" font-size="14.00">PrismaModule</text>
</g>
<!-- PrismaModule&#45;&gt;AppModule -->
<g id="edge8" class="edge">
<title>PrismaModule&#45;&gt;AppModule</title>
<path fill="none" stroke="black" d="M607,-122.24C607,-137.57 607,-157 607,-157 607,-157 772.16,-157 772.16,-157"/>
<polygon fill="black" stroke="black" points="772.16,-160.5 782.16,-157 772.16,-153.5 772.16,-160.5"/>
</g>
<!-- SchoolModule -->
<g id="node9" class="node">
<title>SchoolModule</title>
<polygon fill="#8dd3c7" stroke="black" points="540.44,-122 537.44,-126 516.44,-126 513.44,-122 441.56,-122 441.56,-86 540.44,-86 540.44,-122"/>
<text text-anchor="middle" x="491" y="-99.8" font-family="Times,serif" font-size="14.00">SchoolModule</text>
</g>
<!-- SchoolModule&#45;&gt;AppModule -->
<g id="edge9" class="edge">
<title>SchoolModule&#45;&gt;AppModule</title>
<path fill="none" stroke="black" d="M491,-122.02C491,-139.37 491,-163 491,-163 491,-163 772.16,-163 772.16,-163"/>
<polygon fill="black" stroke="black" points="772.16,-166.5 782.16,-163 772.16,-159.5 772.16,-166.5"/>
</g>
<!-- StudentAdminModule -->
<g id="node10" class="node">
<title>StudentAdminModule</title>
<polygon fill="#8dd3c7" stroke="black" points="423.72,-122 420.72,-126 399.72,-126 396.72,-122 282.28,-122 282.28,-86 423.72,-86 423.72,-122"/>
<text text-anchor="middle" x="353" y="-99.8" font-family="Times,serif" font-size="14.00">StudentAdminModule</text>
</g>
<!-- StudentAdminModule&#45;&gt;AppModule -->
<g id="edge10" class="edge">
<title>StudentAdminModule&#45;&gt;AppModule</title>
<path fill="none" stroke="black" d="M353,-122.11C353,-141.34 353,-169 353,-169 353,-169 772.2,-169 772.2,-169"/>
<polygon fill="black" stroke="black" points="772.2,-172.5 782.2,-169 772.2,-165.5 772.2,-172.5"/>
</g>
<!-- StudentModule -->
<g id="node11" class="node">
<title>StudentModule</title>
<polygon fill="#8dd3c7" stroke="black" points="264.33,-122 261.33,-126 240.33,-126 237.33,-122 161.67,-122 161.67,-86 264.33,-86 264.33,-122"/>
<text text-anchor="middle" x="213" y="-99.8" font-family="Times,serif" font-size="14.00">StudentModule</text>
</g>
<!-- StudentModule&#45;&gt;AppModule -->
<g id="edge11" class="edge">
<title>StudentModule&#45;&gt;AppModule</title>
<path fill="none" stroke="black" d="M213,-122.28C213,-143.32 213,-175 213,-175 213,-175 772,-175 772,-175"/>
<polygon fill="black" stroke="black" points="772,-178.5 782,-175 772,-171.5 772,-178.5"/>
</g>
<!-- AppService -->
<g id="node13" class="node">
<title>AppService</title>
<ellipse fill="#fdb462" stroke="black" cx="81" cy="-104" rx="56.74" ry="18"/>
<text text-anchor="middle" x="81" y="-99.8" font-family="Times,serif" font-size="14.00">AppService</text>
</g>
<!-- AppService&#45;&gt;AppModule -->
<g id="edge12" class="edge">
<title>AppService&#45;&gt;AppModule</title>
<path fill="none" stroke="black" d="M81,-122.09C81,-145.13 81,-182 81,-182 81,-182 772.19,-182 772.19,-182"/>
<polygon fill="black" stroke="black" points="772.19,-185.5 782.19,-182 772.19,-178.5 772.19,-185.5"/>
</g>
</g>
</svg>
