<?xml version="1.0" encoding="UTF-8" standalone="no"?>
<!DOCTYPE svg PUBLIC "-//W3C//DTD SVG 1.1//EN"
 "http://www.w3.org/Graphics/SVG/1.1/DTD/svg11.dtd">
<!-- Generated by graphviz version 2.47.0 (20210316.0004)
 -->
<!-- Title: dependencies Pages: 1 -->
<svg width="673pt" height="211pt"
 viewBox="0.00 0.00 673.00 211.00" xmlns="http://www.w3.org/2000/svg" xmlns:xlink="http://www.w3.org/1999/xlink">
<g id="graph0" class="graph" transform="scale(1 1) rotate(0) translate(4 207)">
<title>dependencies</title>
<polygon fill="white" stroke="transparent" points="-4,4 -4,-207 669,-207 669,4 -4,4"/>
<text text-anchor="start" x="311.51" y="-42.4" font-family="Times-12" font-weight="bold" font-size="14.00">Legend</text>
<polygon fill="#ffffb3" stroke="transparent" points="98.5,-10 98.5,-30 118.5,-30 118.5,-10 98.5,-10"/>
<text text-anchor="start" x="122.13" y="-15.4" font-family="Times-12" font-size="14.00"> &#160;Declarations</text>
<polygon fill="#8dd3c7" stroke="transparent" points="211.5,-10 211.5,-30 231.5,-30 231.5,-10 211.5,-10"/>
<text text-anchor="start" x="235.23" y="-15.4" font-family="Times-12" font-size="14.00"> &#160;Module</text>
<polygon fill="#80b1d3" stroke="transparent" points="297.5,-10 297.5,-30 317.5,-30 317.5,-10 297.5,-10"/>
<text text-anchor="start" x="321.28" y="-15.4" font-family="Times-12" font-size="14.00"> &#160;Bootstrap</text>
<polygon fill="#fdb462" stroke="transparent" points="394.5,-10 394.5,-30 414.5,-30 414.5,-10 394.5,-10"/>
<text text-anchor="start" x="418.17" y="-15.4" font-family="Times-12" font-size="14.00"> &#160;Providers</text>
<polygon fill="#fb8072" stroke="transparent" points="490.5,-10 490.5,-30 510.5,-30 510.5,-10 490.5,-10"/>
<text text-anchor="start" x="514.23" y="-15.4" font-family="Times-12" font-size="14.00"> &#160;Exports</text>
<g id="clust1" class="cluster">
<title>cluster_AuthStudentModule</title>
<polygon fill="none" stroke="black" stroke-dasharray="1,5" points="8,-70 8,-195 657,-195 657,-70 8,-70"/>
</g>
<g id="clust6" class="cluster">
<title>cluster_AuthStudentModule_providers</title>
<polygon fill="none" stroke="black" points="16,-78 16,-130 649,-130 649,-78 16,-78"/>
</g>
<!-- AdminService -->
<g id="node1" class="node">
<title>AdminService</title>
<ellipse fill="#fdb462" stroke="black" cx="574" cy="-104" rx="66.63" ry="18"/>
<text text-anchor="middle" x="574" y="-99.8" font-family="Times,serif" font-size="14.00">AdminService</text>
</g>
<!-- AuthStudentModule -->
<g id="node5" class="node">
<title>AuthStudentModule</title>
<polygon fill="#8dd3c7" stroke="black" points="413.33,-187 410.33,-191 389.33,-191 386.33,-187 282.67,-187 282.67,-151 413.33,-151 413.33,-187"/>
<text text-anchor="middle" x="348" y="-164.8" font-family="Times,serif" font-size="14.00">AuthStudentModule</text>
</g>
<!-- AdminService&#45;&gt;AuthStudentModule -->
<g id="edge1" class="edge">
<title>AdminService&#45;&gt;AuthStudentModule</title>
<path fill="none" stroke="black" d="M574,-122.11C574,-141.34 574,-169 574,-169 574,-169 423.37,-169 423.37,-169"/>
<polygon fill="black" stroke="black" points="423.37,-165.5 413.37,-169 423.37,-172.5 423.37,-165.5"/>
</g>
<!-- AuthService -->
<g id="node2" class="node">
<title>AuthService</title>
<ellipse fill="#fdb462" stroke="black" cx="430" cy="-104" rx="59.11" ry="18"/>
<text text-anchor="middle" x="430" y="-99.8" font-family="Times,serif" font-size="14.00">AuthService</text>
</g>
<!-- AuthService&#45;&gt;AuthStudentModule -->
<g id="edge2" class="edge">
<title>AuthService&#45;&gt;AuthStudentModule</title>
<path fill="none" stroke="black" d="M391.93,-118.1C391.93,-118.1 391.93,-140.72 391.93,-140.72"/>
<polygon fill="black" stroke="black" points="388.43,-140.72 391.93,-150.72 395.43,-140.72 388.43,-140.72"/>
</g>
<!-- JwtStudentStrategy -->
<g id="node3" class="node">
<title>JwtStudentStrategy</title>
<ellipse fill="#fdb462" stroke="black" cx="267" cy="-104" rx="86.27" ry="18"/>
<text text-anchor="middle" x="267" y="-99.8" font-family="Times,serif" font-size="14.00">JwtStudentStrategy</text>
</g>
<!-- JwtStudentStrategy&#45;&gt;AuthStudentModule -->
<g id="edge3" class="edge">
<title>JwtStudentStrategy&#45;&gt;AuthStudentModule</title>
<path fill="none" stroke="black" d="M317.99,-118.75C317.99,-118.75 317.99,-140.59 317.99,-140.59"/>
<polygon fill="black" stroke="black" points="314.49,-140.59 317.99,-150.59 321.49,-140.59 314.49,-140.59"/>
</g>
<!-- StudentService -->
<g id="node4" class="node">
<title>StudentService</title>
<ellipse fill="#fdb462" stroke="black" cx="93" cy="-104" rx="69.5" ry="18"/>
<text text-anchor="middle" x="93" y="-99.8" font-family="Times,serif" font-size="14.00">StudentService</text>
</g>
<!-- StudentService&#45;&gt;AuthStudentModule -->
<g id="edge4" class="edge">
<title>StudentService&#45;&gt;AuthStudentModule</title>
<path fill="none" stroke="black" d="M93,-122.11C93,-141.34 93,-169 93,-169 93,-169 272.66,-169 272.66,-169"/>
<polygon fill="black" stroke="black" points="272.66,-172.5 282.66,-169 272.66,-165.5 272.66,-172.5"/>
</g>
</g>
</svg>
