<?xml version="1.0" encoding="UTF-8" standalone="no"?>
<!DOCTYPE svg PUBLIC "-//W3C//DTD SVG 1.1//EN"
 "http://www.w3.org/Graphics/SVG/1.1/DTD/svg11.dtd">
<!-- Generated by graphviz version 2.47.0 (20210316.0004)
 -->
<!-- Title: dependencies Pages: 1 -->
<svg width="2277pt" height="298pt"
 viewBox="0.00 0.00 2277.00 298.00" xmlns="http://www.w3.org/2000/svg" xmlns:xlink="http://www.w3.org/1999/xlink">
<g id="graph0" class="graph" transform="scale(1 1) rotate(0) translate(4 294)">
<title>dependencies</title>
<polygon fill="white" stroke="transparent" points="-4,4 -4,-294 2273,-294 2273,4 -4,4"/>
<text text-anchor="start" x="1113.51" y="-42.4" font-family="Times-12" font-weight="bold" font-size="14.00">Legend</text>
<polygon fill="#ffffb3" stroke="transparent" points="900.5,-10 900.5,-30 920.5,-30 920.5,-10 900.5,-10"/>
<text text-anchor="start" x="924.13" y="-15.4" font-family="Times-12" font-size="14.00"> &#160;Declarations</text>
<polygon fill="#8dd3c7" stroke="transparent" points="1013.5,-10 1013.5,-30 1033.5,-30 1033.5,-10 1013.5,-10"/>
<text text-anchor="start" x="1037.23" y="-15.4" font-family="Times-12" font-size="14.00"> &#160;Module</text>
<polygon fill="#80b1d3" stroke="transparent" points="1099.5,-10 1099.5,-30 1119.5,-30 1119.5,-10 1099.5,-10"/>
<text text-anchor="start" x="1123.28" y="-15.4" font-family="Times-12" font-size="14.00"> &#160;Bootstrap</text>
<polygon fill="#fdb462" stroke="transparent" points="1196.5,-10 1196.5,-30 1216.5,-30 1216.5,-10 1196.5,-10"/>
<text text-anchor="start" x="1220.17" y="-15.4" font-family="Times-12" font-size="14.00"> &#160;Providers</text>
<polygon fill="#fb8072" stroke="transparent" points="1292.5,-10 1292.5,-30 1312.5,-30 1312.5,-10 1292.5,-10"/>
<text text-anchor="start" x="1316.23" y="-15.4" font-family="Times-12" font-size="14.00"> &#160;Exports</text>
<g id="clust1" class="cluster">
<title>cluster_AdminModule</title>
<polygon fill="none" stroke="black" stroke-dasharray="1,5" points="8,-70 8,-206 466,-206 466,-70 8,-70"/>
</g>
<g id="clust6" class="cluster">
<title>cluster_AdminModule_providers</title>
<polygon fill="none" stroke="black" points="16,-78 16,-130 458,-130 458,-78 16,-78"/>
</g>
<g id="clust7" class="cluster">
<title>cluster_AppModule</title>
<polygon fill="none" stroke="black" stroke-dasharray="1,5" points="474,-146 474,-274 1963,-274 1963,-146 474,-146"/>
</g>
<g id="clust9" class="cluster">
<title>cluster_AppModule_imports</title>
<polygon fill="none" stroke="black" points="620,-154 620,-206 1955,-206 1955,-154 620,-154"/>
</g>
<g id="clust12" class="cluster">
<title>cluster_AppModule_providers</title>
<polygon fill="none" stroke="black" points="482,-154 482,-206 612,-206 612,-154 482,-154"/>
</g>
<g id="clust13" class="cluster">
<title>cluster_AuthAdminModule</title>
<polygon fill="none" stroke="black" stroke-dasharray="1,5" points="592,-70 592,-138 790,-138 790,-70 592,-70"/>
</g>
<g id="clust18" class="cluster">
<title>cluster_AuthAdminModule_providers</title>
<polygon fill="none" stroke="black" points="600,-78 600,-130 782,-130 782,-78 600,-78"/>
</g>
<g id="clust19" class="cluster">
<title>cluster_AuthModule</title>
<polygon fill="none" stroke="black" stroke-dasharray="1,5" points="844,-70 844,-138 1006,-138 1006,-70 844,-70"/>
</g>
<g id="clust24" class="cluster">
<title>cluster_AuthModule_providers</title>
<polygon fill="none" stroke="black" points="852,-78 852,-130 998,-130 998,-78 852,-78"/>
</g>
<g id="clust25" class="cluster">
<title>cluster_AuthStudentModule</title>
<polygon fill="none" stroke="black" stroke-dasharray="1,5" points="1014,-70 1014,-138 1218,-138 1218,-70 1014,-70"/>
</g>
<g id="clust30" class="cluster">
<title>cluster_AuthStudentModule_providers</title>
<polygon fill="none" stroke="black" points="1022,-78 1022,-130 1210,-130 1210,-78 1022,-78"/>
</g>
<g id="clust31" class="cluster">
<title>cluster_GradeModule</title>
<polygon fill="none" stroke="black" stroke-dasharray="1,5" points="1272,-70 1272,-138 1432,-138 1432,-70 1272,-70"/>
</g>
<g id="clust36" class="cluster">
<title>cluster_GradeModule_providers</title>
<polygon fill="none" stroke="black" points="1280,-78 1280,-130 1424,-130 1424,-78 1280,-78"/>
</g>
<g id="clust37" class="cluster">
<title>cluster_LessonAdminModule</title>
<polygon fill="none" stroke="black" stroke-dasharray="1,5" points="1483,-70 1483,-138 1649,-138 1649,-70 1483,-70"/>
</g>
<g id="clust42" class="cluster">
<title>cluster_LessonAdminModule_providers</title>
<polygon fill="none" stroke="black" points="1491,-78 1491,-130 1641,-130 1641,-78 1491,-78"/>
</g>
<g id="clust49" class="cluster">
<title>cluster_PrismaModule</title>
<polygon fill="none" stroke="black" stroke-dasharray="1,5" points="1971,-214 1971,-282 2261,-282 2261,-214 1971,-214"/>
</g>
<g id="clust52" class="cluster">
<title>cluster_PrismaModule_exports</title>
<polygon fill="none" stroke="black" points="2137,-222 2137,-274 2253,-274 2253,-222 2137,-222"/>
</g>
<g id="clust54" class="cluster">
<title>cluster_PrismaModule_providers</title>
<polygon fill="none" stroke="black" points="1979,-222 1979,-274 2129,-274 2129,-222 1979,-222"/>
</g>
<g id="clust55" class="cluster">
<title>cluster_SchoolModule</title>
<polygon fill="none" stroke="black" stroke-dasharray="1,5" points="1699,-70 1699,-138 1865,-138 1865,-70 1699,-70"/>
</g>
<g id="clust60" class="cluster">
<title>cluster_SchoolModule_providers</title>
<polygon fill="none" stroke="black" points="1707,-78 1707,-130 1857,-130 1857,-78 1707,-78"/>
</g>
<!-- AdminService -->
<g id="node1" class="node">
<title>AdminService</title>
<ellipse fill="#fdb462" stroke="black" cx="227" cy="-104" rx="66.63" ry="18"/>
<text text-anchor="middle" x="227" y="-99.8" font-family="Times,serif" font-size="14.00">AdminService</text>
</g>
<!-- AdminModule -->
<g id="node4" class="node">
<title>AdminModule</title>
<polygon fill="#8dd3c7" stroke="black" points="353.44,-198 350.44,-202 329.44,-202 326.44,-198 254.56,-198 254.56,-162 353.44,-162 353.44,-198"/>
<text text-anchor="middle" x="304" y="-175.8" font-family="Times,serif" font-size="14.00">AdminModule</text>
</g>
<!-- AdminService&#45;&gt;AdminModule -->
<g id="edge1" class="edge">
<title>AdminService&#45;&gt;AdminModule</title>
<path fill="none" stroke="black" d="M264.54,-119.02C264.54,-119.02 264.54,-151.8 264.54,-151.8"/>
<polygon fill="black" stroke="black" points="261.04,-151.8 264.54,-161.8 268.04,-151.8 261.04,-151.8"/>
</g>
<!-- AuthAdminModule -->
<g id="node5" class="node">
<title>AuthAdminModule</title>
<polygon fill="#8dd3c7" stroke="black" points="754.44,-198 751.44,-202 730.44,-202 727.44,-198 627.56,-198 627.56,-162 754.44,-162 754.44,-198"/>
<text text-anchor="middle" x="691" y="-175.8" font-family="Times,serif" font-size="14.00">AuthAdminModule</text>
</g>
<!-- AdminService&#45;&gt;AuthAdminModule -->
<g id="edge16" class="edge">
<title>AdminService&#45;&gt;AuthAdminModule</title>
<path fill="none" stroke="black" d="M274.3,-117.12C274.3,-131.33 274.3,-152 274.3,-152 274.3,-152 678.36,-152 678.36,-152 678.36,-152 678.36,-152.98 678.36,-152.98"/>
<polygon fill="black" stroke="black" points="674.86,-151.79 678.36,-161.79 681.86,-151.79 674.86,-151.79"/>
</g>
<!-- AuthStudentModule -->
<g id="node7" class="node">
<title>AuthStudentModule</title>
<polygon fill="#8dd3c7" stroke="black" points="902.33,-198 899.33,-202 878.33,-202 875.33,-198 771.67,-198 771.67,-162 902.33,-162 902.33,-198"/>
<text text-anchor="middle" x="837" y="-175.8" font-family="Times,serif" font-size="14.00">AuthStudentModule</text>
</g>
<!-- AdminService&#45;&gt;AuthStudentModule -->
<g id="edge21" class="edge">
<title>AdminService&#45;&gt;AuthStudentModule</title>
<path fill="none" stroke="black" d="M284.06,-113.72C284.06,-124.68 284.06,-141 284.06,-141 284.06,-141 817.39,-141 817.39,-141 817.39,-141 817.39,-151.87 817.39,-151.87"/>
<polygon fill="black" stroke="black" points="813.89,-151.87 817.39,-161.87 820.89,-151.87 813.89,-151.87"/>
</g>
<!-- AuthService -->
<g id="node2" class="node">
<title>AuthService</title>
<ellipse fill="#fdb462" stroke="black" cx="83" cy="-104" rx="59.11" ry="18"/>
<text text-anchor="middle" x="83" y="-99.8" font-family="Times,serif" font-size="14.00">AuthService</text>
</g>
<!-- AuthService&#45;&gt;AdminModule -->
<g id="edge2" class="edge">
<title>AuthService&#45;&gt;AdminModule</title>
<path fill="none" stroke="black" d="M112.65,-119.75C112.65,-142.01 112.65,-180 112.65,-180 112.65,-180 244.72,-180 244.72,-180"/>
<polygon fill="black" stroke="black" points="244.72,-183.5 254.72,-180 244.72,-176.5 244.72,-183.5"/>
</g>
<!-- AuthService&#45;&gt;AuthAdminModule -->
<g id="edge17" class="edge">
<title>AuthService&#45;&gt;AuthAdminModule</title>
<path fill="none" stroke="black" d="M53.35,-119.86C53.35,-134.83 53.35,-155 53.35,-155 53.35,-155 653.07,-155 653.07,-155 653.07,-155 653.07,-155.68 653.07,-155.68"/>
<polygon fill="black" stroke="black" points="649.57,-151.83 653.07,-161.83 656.57,-151.83 649.57,-151.83"/>
</g>
<!-- AuthService&#45;&gt;AuthStudentModule -->
<g id="edge22" class="edge">
<title>AuthService&#45;&gt;AuthStudentModule</title>
<path fill="none" stroke="black" d="M83,-122.13C83,-132.71 83,-144 83,-144 83,-144 795.92,-144 795.92,-144 795.92,-144 795.92,-151.58 795.92,-151.58"/>
<polygon fill="black" stroke="black" points="792.42,-151.58 795.92,-161.58 799.42,-151.58 792.42,-151.58"/>
</g>
<!-- StudentService -->
<g id="node3" class="node">
<title>StudentService</title>
<ellipse fill="#fdb462" stroke="black" cx="381" cy="-104" rx="69.5" ry="18"/>
<text text-anchor="middle" x="381" y="-99.8" font-family="Times,serif" font-size="14.00">StudentService</text>
</g>
<!-- StudentService&#45;&gt;AdminModule -->
<g id="edge3" class="edge">
<title>StudentService&#45;&gt;AdminModule</title>
<path fill="none" stroke="black" d="M332.36,-116.89C332.36,-116.89 332.36,-151.91 332.36,-151.91"/>
<polygon fill="black" stroke="black" points="328.86,-151.91 332.36,-161.91 335.86,-151.91 328.86,-151.91"/>
</g>
<!-- StudentService&#45;&gt;AuthAdminModule -->
<g id="edge19" class="edge">
<title>StudentService&#45;&gt;AuthAdminModule</title>
<path fill="none" stroke="black" d="M372.67,-121.9C372.67,-134.08 372.67,-148 372.67,-148 372.67,-148 703.64,-148 703.64,-148 703.64,-148 703.64,-151.76 703.64,-151.76"/>
<polygon fill="black" stroke="black" points="700.14,-151.76 703.64,-161.76 707.14,-151.76 700.14,-151.76"/>
</g>
<!-- StudentService&#45;&gt;AuthStudentModule -->
<g id="edge24" class="edge">
<title>StudentService&#45;&gt;AuthStudentModule</title>
<path fill="none" stroke="black" d="M392.13,-122.04C392.13,-129.75 392.13,-137 392.13,-137 392.13,-137 838.86,-137 838.86,-137 838.86,-137 838.86,-151.51 838.86,-151.51"/>
<polygon fill="black" stroke="black" points="835.36,-151.51 838.86,-161.51 842.36,-151.51 835.36,-151.51"/>
</g>
<!-- StudentAdminModule -->
<g id="node13" class="node">
<title>StudentAdminModule</title>
<polygon fill="#8dd3c7" stroke="black" points="1181.72,-198 1178.72,-202 1157.72,-202 1154.72,-198 1040.28,-198 1040.28,-162 1181.72,-162 1181.72,-198"/>
<text text-anchor="middle" x="1111" y="-175.8" font-family="Times,serif" font-size="14.00">StudentAdminModule</text>
</g>
<!-- StudentService&#45;&gt;StudentAdminModule -->
<g id="edge31" class="edge">
<title>StudentService&#45;&gt;StudentAdminModule</title>
<path fill="none" stroke="black" d="M431.04,-116.7C431.04,-123.3 431.04,-130 431.04,-130 431.04,-130 1111,-130 1111,-130 1111,-130 1111,-151.95 1111,-151.95"/>
<polygon fill="black" stroke="black" points="1107.5,-151.95 1111,-161.95 1114.5,-151.95 1107.5,-151.95"/>
</g>
<!-- StudentModule -->
<g id="node14" class="node">
<title>StudentModule</title>
<polygon fill="#8dd3c7" stroke="black" points="1022.33,-198 1019.33,-202 998.33,-202 995.33,-198 919.67,-198 919.67,-162 1022.33,-162 1022.33,-198"/>
<text text-anchor="middle" x="971" y="-175.8" font-family="Times,serif" font-size="14.00">StudentModule</text>
</g>
<!-- StudentService&#45;&gt;StudentModule -->
<g id="edge32" class="edge">
<title>StudentService&#45;&gt;StudentModule</title>
<path fill="none" stroke="black" d="M411.59,-120.2C411.59,-126.84 411.59,-133 411.59,-133 411.59,-133 943.11,-133 943.11,-133 943.11,-133 943.11,-151.96 943.11,-151.96"/>
<polygon fill="black" stroke="black" points="939.61,-151.96 943.11,-161.96 946.61,-151.96 939.61,-151.96"/>
</g>
<!-- AppModule -->
<g id="node15" class="node">
<title>AppModule</title>
<polygon fill="#8dd3c7" stroke="black" points="1218.66,-266 1215.66,-270 1194.66,-270 1191.66,-266 1135.34,-266 1135.34,-230 1218.66,-230 1218.66,-266"/>
<text text-anchor="middle" x="1177" y="-243.8" font-family="Times,serif" font-size="14.00">AppModule</text>
</g>
<!-- AdminModule&#45;&gt;AppModule -->
<g id="edge4" class="edge">
<title>AdminModule&#45;&gt;AppModule</title>
<path fill="none" stroke="black" d="M304,-198.15C304,-221.76 304,-260 304,-260 304,-260 1125.19,-260 1125.19,-260"/>
<polygon fill="black" stroke="black" points="1125.19,-263.5 1135.19,-260 1125.19,-256.5 1125.19,-263.5"/>
</g>
<!-- AuthAdminModule&#45;&gt;AppModule -->
<g id="edge5" class="edge">
<title>AuthAdminModule&#45;&gt;AppModule</title>
<path fill="none" stroke="black" d="M691,-198.22C691,-218.37 691,-248 691,-248 691,-248 1125.14,-248 1125.14,-248"/>
<polygon fill="black" stroke="black" points="1125.14,-251.5 1135.14,-248 1125.14,-244.5 1125.14,-251.5"/>
</g>
<!-- AuthModule -->
<g id="node6" class="node">
<title>AuthModule</title>
<polygon fill="#8dd3c7" stroke="black" points="1286.55,-198 1283.55,-202 1262.55,-202 1259.55,-198 1199.45,-198 1199.45,-162 1286.55,-162 1286.55,-198"/>
<text text-anchor="middle" x="1243" y="-175.8" font-family="Times,serif" font-size="14.00">AuthModule</text>
</g>
<!-- AuthModule&#45;&gt;AppModule -->
<g id="edge6" class="edge">
<title>AuthModule&#45;&gt;AppModule</title>
<path fill="none" stroke="black" d="M1209.03,-198.22C1209.03,-198.22 1209.03,-219.73 1209.03,-219.73"/>
<polygon fill="black" stroke="black" points="1205.53,-219.73 1209.03,-229.73 1212.53,-219.73 1205.53,-219.73"/>
</g>
<!-- AuthStudentModule&#45;&gt;AppModule -->
<g id="edge7" class="edge">
<title>AuthStudentModule&#45;&gt;AppModule</title>
<path fill="none" stroke="black" d="M837,-198.27C837,-216.56 837,-242 837,-242 837,-242 1125.31,-242 1125.31,-242"/>
<polygon fill="black" stroke="black" points="1125.31,-245.5 1135.31,-242 1125.31,-238.5 1125.31,-245.5"/>
</g>
<!-- GradeModule -->
<g id="node8" class="node">
<title>GradeModule</title>
<polygon fill="#8dd3c7" stroke="black" points="1398.75,-198 1395.75,-202 1374.75,-202 1371.75,-198 1305.25,-198 1305.25,-162 1398.75,-162 1398.75,-198"/>
<text text-anchor="middle" x="1352" y="-175.8" font-family="Times,serif" font-size="14.00">GradeModule</text>
</g>
<!-- GradeModule&#45;&gt;AppModule -->
<g id="edge8" class="edge">
<title>GradeModule&#45;&gt;AppModule</title>
<path fill="none" stroke="black" d="M1352,-198.03C1352,-214.4 1352,-236 1352,-236 1352,-236 1228.92,-236 1228.92,-236"/>
<polygon fill="black" stroke="black" points="1228.92,-232.5 1218.92,-236 1228.92,-239.5 1228.92,-232.5"/>
</g>
<!-- LessonAdminModule -->
<g id="node9" class="node">
<title>LessonAdminModule</title>
<polygon fill="#8dd3c7" stroke="black" points="1555.09,-198 1552.09,-202 1531.09,-202 1528.09,-198 1416.91,-198 1416.91,-162 1555.09,-162 1555.09,-198"/>
<text text-anchor="middle" x="1486" y="-175.8" font-family="Times,serif" font-size="14.00">LessonAdminModule</text>
</g>
<!-- LessonAdminModule&#45;&gt;AppModule -->
<g id="edge9" class="edge">
<title>LessonAdminModule&#45;&gt;AppModule</title>
<path fill="none" stroke="black" d="M1486,-198.3C1486,-216.27 1486,-241 1486,-241 1486,-241 1228.67,-241 1228.67,-241"/>
<polygon fill="black" stroke="black" points="1228.67,-237.5 1218.67,-241 1228.67,-244.5 1228.67,-237.5"/>
</g>
<!-- LessonStudentModule -->
<g id="node10" class="node">
<title>LessonStudentModule</title>
<polygon fill="#8dd3c7" stroke="black" points="1714.98,-198 1711.98,-202 1690.98,-202 1687.98,-198 1573.02,-198 1573.02,-162 1714.98,-162 1714.98,-198"/>
<text text-anchor="middle" x="1644" y="-175.8" font-family="Times,serif" font-size="14.00">LessonStudentModule</text>
</g>
<!-- LessonStudentModule&#45;&gt;AppModule -->
<g id="edge10" class="edge">
<title>LessonStudentModule&#45;&gt;AppModule</title>
<path fill="none" stroke="black" d="M1644,-198.03C1644,-217.58 1644,-246 1644,-246 1644,-246 1228.85,-246 1228.85,-246"/>
<polygon fill="black" stroke="black" points="1228.85,-242.5 1218.85,-246 1228.85,-249.5 1228.85,-242.5"/>
</g>
<!-- PrismaModule -->
<g id="node11" class="node">
<title>PrismaModule</title>
<polygon fill="#8dd3c7" stroke="black" points="1947.43,-198 1944.43,-202 1923.43,-202 1920.43,-198 1848.57,-198 1848.57,-162 1947.43,-162 1947.43,-198"/>
<text text-anchor="middle" x="1898" y="-175.8" font-family="Times,serif" font-size="14.00">PrismaModule</text>
</g>
<!-- PrismaModule&#45;&gt;AppModule -->
<g id="edge11" class="edge">
<title>PrismaModule&#45;&gt;AppModule</title>
<path fill="none" stroke="black" d="M1881.59,-198.01C1881.59,-220.49 1881.59,-256 1881.59,-256 1881.59,-256 1228.7,-256 1228.7,-256"/>
<polygon fill="black" stroke="black" points="1228.7,-252.5 1218.7,-256 1228.7,-259.5 1228.7,-252.5"/>
</g>
<!-- PrismaService  -->
<g id="node22" class="node">
<title>PrismaService </title>
<polygon fill="#fb8072" stroke="black" points="2245.36,-266 2144.64,-266 2144.64,-230 2245.36,-230 2245.36,-266"/>
<text text-anchor="middle" x="2195" y="-243.8" font-family="Times,serif" font-size="14.00">PrismaService </text>
</g>
<!-- PrismaModule&#45;&gt;PrismaService  -->
<g id="edge28" class="edge">
<title>PrismaModule&#45;&gt;PrismaService </title>
<path fill="none" stroke="black" stroke-dasharray="5,2" d="M1947.38,-180C2031.83,-180 2195,-180 2195,-180 2195,-180 2195,-219.78 2195,-219.78"/>
<polygon fill="black" stroke="black" points="2191.5,-219.78 2195,-229.78 2198.5,-219.78 2191.5,-219.78"/>
</g>
<!-- SchoolModule -->
<g id="node12" class="node">
<title>SchoolModule</title>
<polygon fill="#8dd3c7" stroke="black" points="1831.44,-198 1828.44,-202 1807.44,-202 1804.44,-198 1732.56,-198 1732.56,-162 1831.44,-162 1831.44,-198"/>
<text text-anchor="middle" x="1782" y="-175.8" font-family="Times,serif" font-size="14.00">SchoolModule</text>
</g>
<!-- SchoolModule&#45;&gt;AppModule -->
<g id="edge12" class="edge">
<title>SchoolModule&#45;&gt;AppModule</title>
<path fill="none" stroke="black" d="M1782,-198.28C1782,-219.32 1782,-251 1782,-251 1782,-251 1229.06,-251 1229.06,-251"/>
<polygon fill="black" stroke="black" points="1229.06,-247.5 1219.06,-251 1229.06,-254.5 1229.06,-247.5"/>
</g>
<!-- StudentAdminModule&#45;&gt;AppModule -->
<g id="edge13" class="edge">
<title>StudentAdminModule&#45;&gt;AppModule</title>
<path fill="none" stroke="black" d="M1158.39,-198.22C1158.39,-198.22 1158.39,-219.73 1158.39,-219.73"/>
<polygon fill="black" stroke="black" points="1154.89,-219.73 1158.39,-229.73 1161.89,-219.73 1154.89,-219.73"/>
</g>
<!-- StudentModule&#45;&gt;AppModule -->
<g id="edge14" class="edge">
<title>StudentModule&#45;&gt;AppModule</title>
<path fill="none" stroke="black" d="M971,-198.03C971,-214.4 971,-236 971,-236 971,-236 1125.31,-236 1125.31,-236"/>
<polygon fill="black" stroke="black" points="1125.31,-239.5 1135.31,-236 1125.31,-232.5 1125.31,-239.5"/>
</g>
<!-- AppService -->
<g id="node16" class="node">
<title>AppService</title>
<ellipse fill="#fdb462" stroke="black" cx="547" cy="-180" rx="56.74" ry="18"/>
<text text-anchor="middle" x="547" y="-175.8" font-family="Times,serif" font-size="14.00">AppService</text>
</g>
<!-- AppService&#45;&gt;AppModule -->
<g id="edge15" class="edge">
<title>AppService&#45;&gt;AppModule</title>
<path fill="none" stroke="black" d="M547,-198.29C547,-220.21 547,-254 547,-254 547,-254 1125.18,-254 1125.18,-254"/>
<polygon fill="black" stroke="black" points="1125.18,-257.5 1135.18,-254 1125.18,-250.5 1125.18,-257.5"/>
</g>
<!-- JwtAdminStrategy -->
<g id="node17" class="node">
<title>JwtAdminStrategy</title>
<ellipse fill="#fdb462" stroke="black" cx="691" cy="-104" rx="83.4" ry="18"/>
<text text-anchor="middle" x="691" y="-99.8" font-family="Times,serif" font-size="14.00">JwtAdminStrategy</text>
</g>
<!-- JwtAdminStrategy&#45;&gt;AuthAdminModule -->
<g id="edge18" class="edge">
<title>JwtAdminStrategy&#45;&gt;AuthAdminModule</title>
<path fill="none" stroke="black" d="M728.93,-120.12C728.93,-120.12 728.93,-151.77 728.93,-151.77"/>
<polygon fill="black" stroke="black" points="725.43,-151.77 728.93,-161.77 732.43,-151.77 725.43,-151.77"/>
</g>
<!-- AuthSService -->
<g id="node18" class="node">
<title>AuthSService</title>
<ellipse fill="#fdb462" stroke="black" cx="925" cy="-104" rx="64.84" ry="18"/>
<text text-anchor="middle" x="925" y="-99.8" font-family="Times,serif" font-size="14.00">AuthSService</text>
</g>
<!-- AuthSService&#45;&gt;AuthModule -->
<g id="edge20" class="edge">
<title>AuthSService&#45;&gt;AuthModule</title>
<path fill="none" stroke="black" d="M966.39,-118.06C966.39,-122.37 966.39,-126 966.39,-126 966.39,-126 1244.45,-126 1244.45,-126 1244.45,-126 1244.45,-151.72 1244.45,-151.72"/>
<polygon fill="black" stroke="black" points="1240.95,-151.72 1244.45,-161.72 1247.95,-151.72 1240.95,-151.72"/>
</g>
<!-- JwtStudentStrategy -->
<g id="node19" class="node">
<title>JwtStudentStrategy</title>
<ellipse fill="#fdb462" stroke="black" cx="1116" cy="-104" rx="86.27" ry="18"/>
<text text-anchor="middle" x="1116" y="-99.8" font-family="Times,serif" font-size="14.00">JwtStudentStrategy</text>
</g>
<!-- JwtStudentStrategy&#45;&gt;AuthStudentModule -->
<g id="edge23" class="edge">
<title>JwtStudentStrategy&#45;&gt;AuthStudentModule</title>
<path fill="none" stroke="black" d="M1035.13,-110.31C1035.13,-124.76 1035.13,-159 1035.13,-159 1035.13,-159 881.25,-159 881.25,-159 881.25,-159 881.25,-159.29 881.25,-159.29"/>
<polygon fill="black" stroke="black" points="877.75,-151.92 881.25,-161.92 884.75,-151.92 877.75,-151.92"/>
</g>
<!-- GradeService -->
<g id="node20" class="node">
<title>GradeService</title>
<ellipse fill="#fdb462" stroke="black" cx="1352" cy="-104" rx="63.66" ry="18"/>
<text text-anchor="middle" x="1352" y="-99.8" font-family="Times,serif" font-size="14.00">GradeService</text>
</g>
<!-- GradeService&#45;&gt;GradeModule -->
<g id="edge25" class="edge">
<title>GradeService&#45;&gt;GradeModule</title>
<path fill="none" stroke="black" d="M1352,-122.01C1352,-122.01 1352,-151.85 1352,-151.85"/>
<polygon fill="black" stroke="black" points="1348.5,-151.85 1352,-161.85 1355.5,-151.85 1348.5,-151.85"/>
</g>
<!-- LessonService -->
<g id="node21" class="node">
<title>LessonService</title>
<ellipse fill="#fdb462" stroke="black" cx="1566" cy="-104" rx="67.19" ry="18"/>
<text text-anchor="middle" x="1566" y="-99.8" font-family="Times,serif" font-size="14.00">LessonService</text>
</g>
<!-- LessonService&#45;&gt;LessonAdminModule -->
<g id="edge26" class="edge">
<title>LessonService&#45;&gt;LessonAdminModule</title>
<path fill="none" stroke="black" d="M1526.85,-118.65C1526.85,-118.65 1526.85,-151.9 1526.85,-151.9"/>
<polygon fill="black" stroke="black" points="1523.35,-151.9 1526.85,-161.9 1530.35,-151.9 1523.35,-151.9"/>
</g>
<!-- LessonService&#45;&gt;LessonStudentModule -->
<g id="edge27" class="edge">
<title>LessonService&#45;&gt;LessonStudentModule</title>
<path fill="none" stroke="black" d="M1603.18,-119.02C1603.18,-119.02 1603.18,-151.8 1603.18,-151.8"/>
<polygon fill="black" stroke="black" points="1599.68,-151.8 1603.18,-161.8 1606.68,-151.8 1599.68,-151.8"/>
</g>
<!-- PrismaService -->
<g id="node23" class="node">
<title>PrismaService</title>
<ellipse fill="#fdb462" stroke="black" cx="2054" cy="-248" rx="66.63" ry="18"/>
<text text-anchor="middle" x="2054" y="-243.8" font-family="Times,serif" font-size="14.00">PrismaService</text>
</g>
<!-- PrismaService&#45;&gt;PrismaModule -->
<g id="edge29" class="edge">
<title>PrismaService&#45;&gt;PrismaModule</title>
<path fill="none" stroke="black" d="M2007.52,-261C1966.91,-261 1914.41,-261 1914.41,-261 1914.41,-261 1914.41,-208.38 1914.41,-208.38"/>
<polygon fill="black" stroke="black" points="1917.91,-208.38 1914.41,-198.38 1910.91,-208.38 1917.91,-208.38"/>
</g>
<!-- SchoolService -->
<g id="node24" class="node">
<title>SchoolService</title>
<ellipse fill="#fdb462" stroke="black" cx="1782" cy="-104" rx="66.63" ry="18"/>
<text text-anchor="middle" x="1782" y="-99.8" font-family="Times,serif" font-size="14.00">SchoolService</text>
</g>
<!-- SchoolService&#45;&gt;SchoolModule -->
<g id="edge30" class="edge">
<title>SchoolService&#45;&gt;SchoolModule</title>
<path fill="none" stroke="black" d="M1782,-122.01C1782,-122.01 1782,-151.85 1782,-151.85"/>
<polygon fill="black" stroke="black" points="1778.5,-151.85 1782,-161.85 1785.5,-151.85 1778.5,-151.85"/>
</g>
</g>
</svg>
